<?xml version="1.0" encoding="utf-8"?>
<!-- Generator: Adobe Illustrator 22.1.0, SVG Export Plug-In . SVG Version: 6.00 Build 0)  -->
<svg version="1.1" id="Layer_1" fill="white" xmlns="http://www.w3.org/2000/svg" xmlns:xlink="http://www.w3.org/1999/xlink" x="0px" y="0px"
	 viewBox="0 0 512 512" style="enable-background:new 0 0 512 512;" xml:space="preserve">
<g>
	<path d="M257.4,253.2v-0.7l-36-46.3c0,0-8.4,1.1-17.6,10.6C197.5,223.4,33.7,385,32.7,386.2c-4.9,7,1.1,4.8,11,1.2
		c0.6,0,80.5-25.7,80.5-25.7c0.4-0.4-0.1-0.1,0.4-0.4c-0.3-3.6-0.6-18.4-0.7-19.5c-0.4-3.7,1.5-4.9,4.9-6.3l65.1-23.8
		C194.4,311.2,256.2,254.3,257.4,253.2L257.4,253.2z M370,337.7c9.4,11.3,14.6,9.4,21.7,6.5c2.2-0.8,81.1-33.5,82.8-34.4
		c5.6-3-1.2-11.7-5.1-16.5c-1.5-1.8-144.2-172.7-145.7-174.6c-6.8-8.6-10.1-9.1-27-9c-7.2,0-75.1,0.4-81.9,0.4
		c-13.5,0.1-23.1-0.2-13.5,11.9C206.8,128.8,366,332.8,370,337.7z M477.4,338.8c-1.6-0.2-17.3-3.3-26.7-5.1c0,0-80.9,35.4-82.6,36.3
		c-11.2,5.1-18.9-2.2-25.8-10.3l-40.1-52c-3.8-0.6-42.5-6.7-45.9-6.5c-2.2,0.1-6.7,0.6-10.1,2c-3.4,1.5-102.1,37.1-105.6,38.5
		c-3.6,1.4-8,2.5-7.8,5.3c0.1,1.8,1.4,1.8,3.2,2.5c1.9,0.6,211.5,47.5,216.5,48.6c11,2.3,27.1,7.4,37.7,1.2
		c1.5-0.8,87-53.7,88.4-54.7C482.3,341.7,481.6,339.8,477.4,338.8z"/>
</g>
</svg>
